<?xml version="1.0" encoding="UTF-8"?>
<svg xmlns="http://www.w3.org/2000/svg" xmlns:xlink="http://www.w3.org/1999/xlink" width="24pt" height="24pt" viewBox="0 0 24 24" version="1.1">
<g id="surface1">
<path style=" stroke:none;fill-rule:nonzero;fill:rgb(0%,0%,0%);fill-opacity:1;" d="M 6.617188 4.785156 C 6.070312 4.785156 5.632812 4.957031 5.300781 5.296875 C 4.964844 5.636719 4.800781 6.066406 4.800781 6.585938 C 4.800781 7.09375 4.964844 7.523438 5.292969 7.867188 C 5.621094 8.214844 6.042969 8.386719 6.566406 8.386719 L 6.582031 8.386719 C 7.128906 8.386719 7.566406 8.214844 7.898438 7.867188 C 8.234375 7.523438 8.398438 7.09375 8.398438 6.585938 C 8.390625 6.066406 8.222656 5.636719 7.898438 5.296875 C 7.578125 4.957031 7.148438 4.785156 6.617188 4.785156 Z M 4.800781 19.199219 L 8.398438 19.199219 L 8.398438 9.601562 L 4.800781 9.601562 Z M 19.199219 0 L 4.800781 0 C 2.148438 0 0 2.148438 0 4.800781 L 0 19.199219 C 0 21.851562 2.148438 24 4.800781 24 L 19.199219 24 C 21.851562 24 24 21.851562 24 19.199219 L 24 4.800781 C 24 2.148438 21.851562 0 19.199219 0 Z M 21.601562 18 C 21.601562 19.988281 19.988281 21.601562 18 21.601562 L 6 21.601562 C 4.011719 21.601562 2.398438 19.988281 2.398438 18 L 2.398438 6 C 2.398438 4.011719 4.011719 2.398438 6 2.398438 L 18 2.398438 C 19.988281 2.398438 21.601562 4.011719 21.601562 6 Z M 15.601562 9.601562 C 14.5 9.601562 13.898438 9.746094 13.199219 10.800781 L 13.199219 9.601562 L 9.601562 9.601562 L 9.789062 11.800781 L 9.601562 19.199219 L 13.199219 19.199219 L 13.199219 13.199219 C 13.199219 12.621094 13.058594 12.578125 13.375 12.265625 C 13.691406 11.957031 13.902344 11.800781 14.378906 11.800781 C 14.867188 11.800781 15.5625 11.972656 15.5625 12.429688 C 15.5625 13.300781 15.601562 13.6875 15.601562 14.398438 L 15.601562 19.199219 L 19.199219 19.199219 L 19.199219 13.601562 C 19.199219 12.277344 18.871094 11.246094 18.207031 10.507812 C 17.546875 9.769531 16.679688 9.601562 15.601562 9.601562 Z M 15.601562 9.601562 "/>
</g>
</svg>
