<?xml version="1.0" encoding="UTF-8"?>
<svg xmlns="http://www.w3.org/2000/svg" xmlns:xlink="http://www.w3.org/1999/xlink" width="20pt" height="20pt" viewBox="0 0 20 20" version="1.1">
<g id="surface1">
<path style=" stroke:none;fill-rule:evenodd;fill:rgb(0%,0%,0%);fill-opacity:1;" d="M 2.222656 20 L 17.777344 20 C 19.003906 20 20 19.003906 20 17.777344 L 20 2.222656 C 20 0.996094 19.003906 0 17.777344 0 L 2.222656 0 C 0.996094 0 0 0.996094 0 2.222656 L 0 17.777344 C 0 19.003906 0.996094 20 2.222656 20 Z M 2.222656 20 "/>
<path style=" stroke:none;fill-rule:evenodd;fill:rgb(100%,100%,100%);fill-opacity:1;" d="M 17.222656 17.222656 L 14.253906 17.222656 L 14.253906 12.167969 C 14.253906 10.78125 13.726562 10.007812 12.628906 10.007812 C 11.4375 10.007812 10.8125 10.8125 10.8125 12.167969 L 10.8125 17.222656 L 7.953125 17.222656 L 7.953125 7.59375 L 10.8125 7.59375 L 10.8125 8.890625 C 10.8125 8.890625 11.675781 7.296875 13.71875 7.296875 C 15.761719 7.296875 17.222656 8.546875 17.222656 11.125 Z M 4.542969 6.332031 C 3.566406 6.332031 2.777344 5.535156 2.777344 4.554688 C 2.777344 3.574219 3.566406 2.777344 4.542969 2.777344 C 5.515625 2.777344 6.304688 3.574219 6.304688 4.554688 C 6.304688 5.535156 5.515625 6.332031 4.542969 6.332031 Z M 3.066406 17.222656 L 6.046875 17.222656 L 6.046875 7.59375 L 3.066406 7.59375 Z M 3.066406 17.222656 "/>
</g>
</svg>
