<?xml version="1.0" encoding="UTF-8"?>
<svg xmlns="http://www.w3.org/2000/svg" xmlns:xlink="http://www.w3.org/1999/xlink" width="32pt" height="32pt" viewBox="0 0 32 32" version="1.1">
<g id="surface1">
<path style=" stroke:none;fill-rule:nonzero;fill:rgb(0%,0%,0%);fill-opacity:1;" d="M 16.027344 0.121094 C 7.210938 0.121094 0.0585938 7.390625 0.0585938 16.363281 C 0.0585938 23.539062 4.632812 29.628906 10.980469 31.777344 C 11.777344 31.925781 12.070312 31.425781 12.070312 30.996094 C 12.070312 30.609375 12.054688 29.328125 12.050781 27.96875 C 7.605469 28.953125 6.667969 26.054688 6.667969 26.054688 C 5.941406 24.175781 4.894531 23.675781 4.894531 23.675781 C 3.445312 22.667969 5.003906 22.691406 5.003906 22.691406 C 6.609375 22.804688 7.453125 24.363281 7.453125 24.363281 C 8.878906 26.847656 11.1875 26.128906 12.101562 25.714844 C 12.242188 24.664062 12.65625 23.949219 13.113281 23.542969 C 9.566406 23.132812 5.839844 21.738281 5.839844 15.515625 C 5.839844 13.742188 6.460938 12.292969 7.484375 11.15625 C 7.316406 10.746094 6.769531 9.09375 7.636719 6.855469 C 7.636719 6.855469 8.980469 6.417969 12.03125 8.519531 C 13.304688 8.160156 14.671875 7.980469 16.027344 7.972656 C 17.386719 7.980469 18.753906 8.160156 20.03125 8.519531 C 23.078125 6.417969 24.417969 6.855469 24.417969 6.855469 C 25.285156 9.09375 24.738281 10.746094 24.574219 11.15625 C 25.597656 12.292969 26.21875 13.742188 26.21875 15.515625 C 26.21875 21.753906 22.480469 23.128906 18.925781 23.527344 C 19.496094 24.035156 20.007812 25.023438 20.007812 26.539062 C 20.007812 28.710938 19.988281 30.460938 19.988281 30.996094 C 19.988281 31.425781 20.277344 31.933594 21.085938 31.773438 C 27.429688 29.625 32 23.539062 32 16.363281 C 32 7.390625 24.847656 0.121094 16.027344 0.121094 Z M 16.027344 0.121094 "/>
<path style=" stroke:none;fill-rule:nonzero;fill:rgb(0%,0%,0%);fill-opacity:1;" d="M 6.105469 23.441406 C 6.070312 23.523438 5.945312 23.546875 5.832031 23.492188 C 5.71875 23.4375 5.652344 23.328125 5.691406 23.246094 C 5.722656 23.164062 5.851562 23.140625 5.964844 23.195312 C 6.082031 23.25 6.148438 23.359375 6.105469 23.441406 Z M 6.105469 23.441406 "/>
<path style=" stroke:none;fill-rule:nonzero;fill:rgb(0%,0%,0%);fill-opacity:1;" d="M 6.753906 24.175781 C 6.679688 24.246094 6.527344 24.214844 6.429688 24.101562 C 6.324219 23.988281 6.304688 23.835938 6.382812 23.761719 C 6.460938 23.691406 6.605469 23.722656 6.707031 23.835938 C 6.8125 23.953125 6.832031 24.101562 6.753906 24.175781 Z M 6.753906 24.175781 "/>
<path style=" stroke:none;fill-rule:nonzero;fill:rgb(0%,0%,0%);fill-opacity:1;" d="M 7.382812 25.109375 C 7.285156 25.179688 7.125 25.113281 7.027344 24.96875 C 6.929688 24.828125 6.929688 24.652344 7.027344 24.582031 C 7.128906 24.515625 7.285156 24.578125 7.386719 24.71875 C 7.484375 24.867188 7.484375 25.039062 7.382812 25.109375 Z M 7.382812 25.109375 "/>
<path style=" stroke:none;fill-rule:nonzero;fill:rgb(0%,0%,0%);fill-opacity:1;" d="M 8.246094 26.015625 C 8.160156 26.113281 7.972656 26.085938 7.835938 25.953125 C 7.695312 25.820312 7.65625 25.636719 7.746094 25.539062 C 7.832031 25.4375 8.019531 25.464844 8.160156 25.597656 C 8.296875 25.730469 8.339844 25.917969 8.246094 26.015625 Z M 8.246094 26.015625 "/>
<path style=" stroke:none;fill-rule:nonzero;fill:rgb(0%,0%,0%);fill-opacity:1;" d="M 9.4375 26.539062 C 9.398438 26.667969 9.21875 26.722656 9.039062 26.671875 C 8.855469 26.613281 8.738281 26.464844 8.773438 26.335938 C 8.8125 26.210938 8.992188 26.148438 9.175781 26.207031 C 9.355469 26.261719 9.472656 26.410156 9.4375 26.539062 Z M 9.4375 26.539062 "/>
<path style=" stroke:none;fill-rule:nonzero;fill:rgb(0%,0%,0%);fill-opacity:1;" d="M 10.742188 26.636719 C 10.746094 26.769531 10.59375 26.882812 10.40625 26.882812 C 10.214844 26.886719 10.058594 26.78125 10.058594 26.648438 C 10.058594 26.511719 10.207031 26.402344 10.398438 26.398438 C 10.589844 26.394531 10.742188 26.503906 10.742188 26.636719 Z M 10.742188 26.636719 "/>
<path style=" stroke:none;fill-rule:nonzero;fill:rgb(0%,0%,0%);fill-opacity:1;" d="M 11.960938 26.425781 C 11.984375 26.558594 11.851562 26.691406 11.660156 26.726562 C 11.476562 26.761719 11.304688 26.679688 11.28125 26.550781 C 11.257812 26.417969 11.394531 26.28125 11.578125 26.25 C 11.765625 26.214844 11.9375 26.292969 11.960938 26.425781 Z M 11.960938 26.425781 "/>
</g>
</svg>
