<?xml version="1.0" encoding="UTF-8"?>
<svg xmlns="http://www.w3.org/2000/svg" xmlns:xlink="http://www.w3.org/1999/xlink" width="24pt" height="24pt" viewBox="0 0 24 24" version="1.1">
<g id="surface1">
<path style=" stroke:none;fill-rule:nonzero;fill:rgb(16.862745%,25.490196%,30.196078%);fill-opacity:1;" d="M 12 0 C 5.371094 0 0 5.371094 0 12 C 0 18.628906 5.371094 24 12 24 C 18.628906 24 24 18.628906 24 12 C 24 5.371094 18.625 0 12 0 Z M 15.363281 21.140625 C 15.292969 20.203125 15.214844 19.039062 15.210938 18.570312 C 15.179688 18.207031 15.140625 17.289062 14.269531 16.699219 C 17.734375 16.410156 19.382812 14.496094 19.503906 11.964844 C 19.601562 10.523438 19.027344 9.253906 18.011719 8.230469 C 18.0625 7.136719 17.976562 5.839844 17.90625 5.269531 C 17.125 5.046875 15.304688 6.007812 14.792969 6.417969 C 13.71875 6.003906 11.089844 5.855469 9.492188 6.417969 C 8.359375 5.621094 7.070312 5.128906 6.367188 5.269531 C 5.71875 6.707031 6.136719 8.066406 6.265625 8.226562 C 5.429688 8.992188 4.261719 9.929688 4.578125 11.898438 C 5.085938 14.785156 7.117188 16.34375 10.386719 16.722656 C 9.691406 16.867188 9.574219 17.386719 9.515625 17.613281 C 7.320312 18.519531 6.691406 17.054688 6.414062 16.671875 C 5.492188 15.53125 4.664062 15.859375 4.613281 15.878906 C 4.5625 15.898438 4.527344 15.96875 4.53125 16.003906 C 4.578125 16.25 5.078125 16.5 5.105469 16.519531 C 5.785156 17.027344 6.035156 17.941406 6.191406 18.203125 C 7.167969 19.808594 9.4375 19.140625 9.457031 19.15625 C 9.457031 19.296875 9.441406 20.476562 9.429688 21.394531 C 5.292969 20.265625 2.25 16.492188 2.25 12 C 2.25 6.613281 6.613281 2.25 12 2.25 C 17.386719 2.25 21.75 6.613281 21.75 12 C 21.75 16.203125 19.085938 19.769531 15.363281 21.140625 Z M 15.363281 21.140625 "/>
</g>
</svg>
