<?xml version="1.0" encoding="UTF-8"?>
<svg xmlns="http://www.w3.org/2000/svg" xmlns:xlink="http://www.w3.org/1999/xlink" width="24pt" height="24pt" viewBox="0 0 24 24" version="1.1">
<g id="surface1">
<path style=" stroke:none;fill-rule:nonzero;fill:rgb(0%,0%,0%);fill-opacity:1;" d="M 23.089844 0 L 0.898438 0 C 0.402344 0 0 0.402344 0 0.898438 L 0 23.089844 C 0 23.585938 0.402344 23.988281 0.898438 23.988281 L 23.089844 23.988281 C 23.585938 23.988281 23.988281 23.585938 23.988281 23.089844 L 23.988281 0.898438 C 23.988281 0.402344 23.585938 0 23.089844 0 Z M 6.371094 19.738281 C 6.371094 20.070312 6.105469 20.335938 5.773438 20.335938 L 3.378906 20.335938 C 3.050781 20.335938 2.78125 20.070312 2.78125 19.738281 L 2.78125 9.269531 C 2.78125 8.9375 3.050781 8.671875 3.378906 8.671875 L 5.773438 8.671875 C 6.105469 8.671875 6.371094 8.9375 6.371094 9.269531 Z M 6.371094 6.230469 C 6.371094 6.5625 6.105469 6.828125 5.773438 6.828125 L 3.378906 6.828125 C 3.050781 6.828125 2.78125 6.5625 2.78125 6.230469 L 2.78125 4.105469 C 2.78125 3.773438 3.050781 3.507812 3.378906 3.507812 L 5.773438 3.507812 C 6.105469 3.507812 6.371094 3.773438 6.371094 4.105469 Z M 21.207031 19.738281 C 21.207031 20.070312 20.9375 20.335938 20.609375 20.335938 L 18.210938 20.335938 C 17.882812 20.335938 17.613281 20.070312 17.613281 19.738281 L 17.613281 15.316406 C 17.613281 13.851562 17.539062 12.902344 17.382812 12.472656 C 17.230469 12.042969 16.980469 11.707031 16.636719 11.46875 C 16.289062 11.230469 15.875 11.113281 15.390625 11.113281 C 14.765625 11.113281 14.210938 11.28125 13.714844 11.625 C 13.222656 11.964844 12.882812 12.414062 12.699219 12.976562 C 12.515625 13.539062 12.425781 14.582031 12.425781 16.097656 L 12.425781 19.738281 C 12.425781 20.070312 12.15625 20.335938 11.824219 20.335938 L 9.429688 20.335938 C 9.101562 20.335938 8.832031 20.070312 8.832031 19.738281 L 8.832031 9.269531 C 8.832031 8.9375 9.101562 8.671875 9.429688 8.671875 L 11.570312 8.671875 C 11.902344 8.671875 12.167969 8.9375 12.167969 9.269531 L 12.167969 10.066406 C 12.167969 10.398438 12.332031 10.449219 12.550781 10.207031 C 13.671875 8.976562 15.035156 8.363281 16.640625 8.363281 C 17.433594 8.363281 18.160156 8.507812 18.816406 8.792969 C 19.472656 9.078125 19.96875 9.441406 20.304688 9.882812 C 20.640625 10.328125 20.875 10.832031 21.007812 11.394531 C 21.140625 11.957031 21.207031 12.761719 21.207031 13.808594 Z M 21.207031 19.738281 "/>
</g>
</svg>
