<svg xmlns="http://www.w3.org/2000/svg" width="133" height="75" viewBox="0 0 133 75"><path fill="#fff" d="M33.52 12.50L11.79 73.72L2.56 73.72L29.26 0.99L38.35 0.99L65.06 73.72L55.82 73.72L34.09 12.50L33.52 12.50ZM15.20 53.13L15.20 45.31L52.41 45.31L52.41 53.13L15.20 53.13ZM131.82 23.72L122.73 23.72Q121.56 20.13 119.66 17.28Q117.76 14.42 115.15 12.39Q112.54 10.37 109.23 9.30Q105.93 8.24 101.99 8.24L101.99 8.24Q95.53 8.24 90.23 11.58Q84.94 14.91 81.82 21.41Q78.69 27.91 78.69 37.36L78.69 37.36Q78.69 46.80 81.85 53.30Q85.01 59.80 90.41 63.14Q95.81 66.48 102.56 66.48L102.56 66.48Q108.81 66.48 113.58 63.80Q118.36 61.12 121.04 56.20Q123.72 51.28 123.72 44.60L123.72 44.60L126.42 45.17L104.55 45.17L104.55 37.36L132.24 37.36L132.24 45.17Q132.24 54.15 128.43 60.80Q124.61 67.44 117.92 71.08Q111.22 74.72 102.56 74.72L102.56 74.72Q92.90 74.72 85.60 70.17Q78.30 65.63 74.24 57.24Q70.17 48.86 70.17 37.36L70.17 37.36Q70.17 28.73 72.50 21.82Q74.82 14.91 79.08 10.05Q83.35 5.18 89.17 2.59Q94.99 0 101.99 0L101.99 0Q107.74 0 112.73 1.72Q117.72 3.44 121.64 6.59Q125.57 9.73 128.20 14.08Q130.82 18.43 131.82 23.72L131.82 23.72Z"></path></svg>